<?xml version="1.0" encoding="utf-8"?>
<!-- Generator: Adobe Illustrator 15.1.0, SVG Export Plug-In . SVG Version: 6.00 Build 0)  -->
<!DOCTYPE svg PUBLIC "-//W3C//DTD SVG 1.1//EN" "http://www.w3.org/Graphics/SVG/1.1/DTD/svg11.dtd">
<svg version="1.1" id="レイヤー_1" xmlns="http://www.w3.org/2000/svg" xmlns:xlink="http://www.w3.org/1999/xlink" x="0px"
	 y="0px" width="450px" height="450px" viewBox="0 0 450 450" style="enable-background:new 0 0 450 450;" xml:space="preserve">
<g>
	<g>
		<path d="M225,37.5C121.45,37.5,37.5,121.45,37.5,225S121.45,412.5,225,412.5S412.5,328.55,412.5,225S328.55,37.5,225,37.5z
			 M225,375c-82.84,0-150-67.16-150-150S142.16,75,225,75s150,67.16,150,150S307.84,375,225,375z"/>
		<path d="M231.38,139.69c-9.39-8.65-23.04-10.87-34.69-5.62c-11.31,4.58-18.73,15.55-18.75,27.75V288.2
			c0.02,12.2,7.44,23.17,18.75,27.75c4.06,1.84,8.47,2.8,12.94,2.81c8.04-0.04,15.79-3.04,21.75-8.44l68.62-63.2
			c12.22-11.19,13.05-30.17,1.87-42.39c-0.59-0.65-1.22-1.27-1.87-1.86L231.38,139.69z M215.62,273.75v-97.5L268.31,225
			L215.62,273.75z"/>
	</g>
</g>
</svg>
