<?xml version="1.0" encoding="utf-8"?>
<!-- Generator: Adobe Illustrator 15.1.0, SVG Export Plug-In . SVG Version: 6.00 Build 0)  -->
<!DOCTYPE svg PUBLIC "-//W3C//DTD SVG 1.1//EN" "http://www.w3.org/Graphics/SVG/1.1/DTD/svg11.dtd">
<svg version="1.1" id="レイヤー_1" xmlns="http://www.w3.org/2000/svg" xmlns:xlink="http://www.w3.org/1999/xlink" x="0px"
	 y="0px" width="450px" height="450px" viewBox="0 0 450 450" style="enable-background:new 0 0 450 450;" xml:space="preserve">
<g>
	<g>
		<path d="M225,37.5C121.45,37.5,37.5,121.45,37.5,225S121.45,412.5,225,412.5S412.5,328.55,412.5,225S328.55,37.5,225,37.5z
			 M225,375c-82.84,0-150-67.16-150-150S142.16,75,225,75s150,67.16,150,150S307.84,375,225,375z"/>
		<path d="M281.25,150c-10.36,0-18.75,8.39-18.75,18.75v112.5c0,10.36,8.39,18.75,18.75,18.75S300,291.61,300,281.25v-112.5
			C300,158.39,291.61,150,281.25,150z"/>
		<path d="M168.75,150c-10.36,0-18.75,8.39-18.75,18.75v112.5c0,10.36,8.39,18.75,18.75,18.75s18.75-8.39,18.75-18.75v-112.5
			C187.5,158.39,179.11,150,168.75,150z"/>
	</g>
</g>
</svg>
