<?xml version="1.0" encoding="utf-8"?>
<!-- Generator: Adobe Illustrator 15.1.0, SVG Export Plug-In . SVG Version: 6.00 Build 0)  -->
<!DOCTYPE svg PUBLIC "-//W3C//DTD SVG 1.1//EN" "http://www.w3.org/Graphics/SVG/1.1/DTD/svg11.dtd">
<svg version="1.1" id="レイヤー_1" xmlns="http://www.w3.org/2000/svg" xmlns:xlink="http://www.w3.org/1999/xlink" x="0px"
	 y="0px" width="450px" height="450px" viewBox="0 0 450 450" style="enable-background:new 0 0 450 450;" xml:space="preserve">
<g>
	<g>
		<path d="M308.44,116.25c-13.61-6.43-29.69-4.54-41.44,4.88l-95.62,78.94l-2.62,2.81v-71.62c0-10.36-8.39-18.75-18.75-18.75
			s-18.75,8.39-18.75,18.75v187.5c0,10.36,8.39,18.75,18.75,18.75s18.75-8.39,18.75-18.75v-71.62l2.62,2.81L267,328.88
			c6.89,5.59,15.5,8.64,24.38,8.62c5.89-0.04,11.7-1.31,17.06-3.75c11.84-5.22,19.54-16.88,19.69-29.81V146.06
			C327.97,133.12,320.28,121.47,308.44,116.25L308.44,116.25z M290.62,300l-90.38-75l90.38-73.31V300z"/>
	</g>
</g>
</svg>
