<?xml version="1.0" encoding="utf-8"?>
<!-- Generator: Adobe Illustrator 15.1.0, SVG Export Plug-In . SVG Version: 6.00 Build 0)  -->
<!DOCTYPE svg PUBLIC "-//W3C//DTD SVG 1.1//EN" "http://www.w3.org/Graphics/SVG/1.1/DTD/svg11.dtd">
<svg version="1.1" id="レイヤー_1" xmlns="http://www.w3.org/2000/svg" xmlns:xlink="http://www.w3.org/1999/xlink" x="0px"
	 y="0px" width="450px" height="450px" viewBox="0 0 450 450" style="enable-background:new 0 0 450 450;" xml:space="preserve">
<g>
	<g>
		<path d="M300,112.5c-10.36,0-18.75,8.39-18.75,18.75v71.62l-2.62-2.81L183,121.12c-11.75-9.41-27.83-11.3-41.44-4.88
			c-11.47,5.49-18.77,17.09-18.75,29.81v157.88c-0.02,12.72,7.28,24.32,18.75,29.81c5.36,2.44,11.17,3.71,17.06,3.75
			c8.87,0.01,17.48-3.04,24.38-8.62l95.62-78.94l2.62-2.81v71.62c0.01,10.36,8.41,18.74,18.77,18.73
			c10.34-0.01,18.72-8.39,18.73-18.73v-187.5C318.75,120.89,310.36,112.5,300,112.5z M159.38,298.31V150l90.38,75L159.38,298.31z"/>
	</g>
</g>
</svg>
