<?xml version="1.0" encoding="utf-8"?>
<!-- Generator: Adobe Illustrator 15.1.0, SVG Export Plug-In . SVG Version: 6.00 Build 0)  -->
<!DOCTYPE svg PUBLIC "-//W3C//DTD SVG 1.1//EN" "http://www.w3.org/Graphics/SVG/1.1/DTD/svg11.dtd">
<svg version="1.1" id="レイヤー_1" xmlns="http://www.w3.org/2000/svg" xmlns:xlink="http://www.w3.org/1999/xlink" x="0px"
	 y="0px" width="450px" height="450px" viewBox="0 0 450 450" style="enable-background:new 0 0 450 450;" xml:space="preserve">
<g>
	<g>
		<path d="M335.81,93.75h-225l24.38-24.19c7.35-7.35,7.35-19.27,0-26.62s-19.27-7.35-26.62,0L52.31,99.19
			c-7.35,7.29-7.4,19.16-0.11,26.52c0.04,0.04,0.07,0.07,0.11,0.11l56.25,56.25c7.29,7.35,19.16,7.4,26.52,0.11
			c0.04-0.04,0.07-0.07,0.11-0.11c7.35-7.29,7.4-19.16,0.11-26.52c-0.04-0.04-0.07-0.07-0.11-0.11l-24.38-24.19h225
			c16.15-0.31,29.5,12.53,29.81,28.68v0.01v46.31c0,10.36,8.39,18.75,18.75,18.75s18.75-8.39,18.75-18.75v-46.31
			C402.82,123.07,372.68,93.44,335.81,93.75C335.82,93.75,335.81,93.75,335.81,93.75z"/>
		<path d="M341.44,267.94c-7.35-7.35-19.27-7.35-26.62,0c-7.35,7.35-7.35,19.27,0,26.62l24.38,24.19h-225
			c-16.15,0.31-29.5-12.53-29.81-28.68v-0.01v-46.31C84.39,233.39,76,225,65.64,225c-10.36,0-18.75,8.39-18.75,18.75v46.31
			c0.31,36.86,30.44,66.5,67.31,66.19l0,0h225l-24.38,24.19c-7.35,7.29-7.4,19.16-0.11,26.52c0.04,0.04,0.07,0.07,0.11,0.11
			c7.29,7.35,19.16,7.4,26.52,0.11c0.04-0.04,0.07-0.07,0.11-0.11l56.25-56.25c7.35-7.29,7.4-19.16,0.11-26.52
			c-0.04-0.04-0.07-0.07-0.11-0.11L341.44,267.94z"/>
	</g>
</g>
</svg>
