<?xml version="1.0" encoding="utf-8"?>
<!-- Generator: Adobe Illustrator 15.1.0, SVG Export Plug-In . SVG Version: 6.00 Build 0)  -->
<!DOCTYPE svg PUBLIC "-//W3C//DTD SVG 1.1//EN" "http://www.w3.org/Graphics/SVG/1.1/DTD/svg11.dtd">
<svg version="1.1" id="レイヤー_1" xmlns="http://www.w3.org/2000/svg" xmlns:xlink="http://www.w3.org/1999/xlink" x="0px"
	 y="0px" width="450px" height="450px" viewBox="0 0 450 450" style="enable-background:new 0 0 450 450;" xml:space="preserve">
<g>
	<g>
		<path d="M356.25,281.25V75c-0.03-5.71-2.65-11.09-7.12-14.62c-4.41-3.57-10.2-4.95-15.75-3.75l-168.75,37.5
			c-8.58,1.94-14.66,9.58-14.62,18.38v156.38c-32.68-15.43-71.68-1.44-87.11,31.24c-15.43,32.68-1.44,71.68,31.24,87.11
			c32.68,15.43,71.68,1.44,87.11-31.24c4.06-8.6,6.2-17.98,6.26-27.49c0.19-3.25,0.19-6.5,0-9.75V127.5l131.25-29.06v132.94
			c-32.68-15.43-71.68-1.44-87.11,31.24c-15.43,32.68-1.44,71.68,31.24,87.11c32.68,15.43,71.68,1.44,87.11-31.24
			c4.09-8.66,6.22-18.1,6.26-27.67C356.43,287.63,356.43,284.44,356.25,281.25z M122.62,356.25c-15.43-0.01-27.93-12.52-27.93-27.95
			c0-15.43,12.52-27.93,27.95-27.93c13.26,0,24.69,9.33,27.36,22.31c0.18,1.87,0.18,3.75,0,5.62
			C150,343.53,137.83,355.94,122.62,356.25z M291.38,318.75c-15.53,0.12-28.22-12.37-28.34-27.9
			c-0.12-15.53,12.37-28.22,27.91-28.34c13.52-0.11,25.2,9.42,27.81,22.69c0.18,1.87,0.18,3.75,0,5.62
			c-0.1,15.39-12.55,27.84-27.94,27.94L291.38,318.75L291.38,318.75z"/>
	</g>
</g>
</svg>
