<?xml version="1.0" encoding="utf-8"?>
<!-- Generator: Adobe Illustrator 15.1.0, SVG Export Plug-In . SVG Version: 6.00 Build 0)  -->
<!DOCTYPE svg PUBLIC "-//W3C//DTD SVG 1.1//EN" "http://www.w3.org/Graphics/SVG/1.1/DTD/svg11.dtd">
<svg version="1.1" id="レイヤー_1" xmlns="http://www.w3.org/2000/svg" xmlns:xlink="http://www.w3.org/1999/xlink" x="0px"
	 y="0px" width="450px" height="450px" viewBox="0 0 450 450" style="enable-background:new 0 0 450 450;" xml:space="preserve">
<g>
	<g>
		<path d="M329.25,393.75c-3,0.01-5.96-0.7-8.62-2.06L225,341.62l-95.62,50.06c-9.17,4.82-20.5,1.3-25.32-7.87
			c-1.94-3.68-2.59-7.91-1.87-12.01l18.75-105.56l-77.25-75c-4.91-4.9-6.71-12.11-4.69-18.75c2.22-6.8,8.11-11.74,15.19-12.75
			l106.88-15.56L208.12,48c4.51-9.32,15.73-13.22,25.05-8.7c3.8,1.84,6.86,4.91,8.7,8.7l47.62,96l106.88,15.56
			c7.08,1.01,12.97,5.95,15.19,12.75c2.03,6.64,0.22,13.85-4.69,18.75l-77.25,75l18.75,105.56c1.37,7.18-1.56,14.5-7.5,18.75
			C337.48,392.75,333.39,393.94,329.25,393.75L329.25,393.75z M225,301.88c3.01-0.08,5.98,0.63,8.62,2.06l70.69,37.5l-13.5-78.94
			c-1.06-6.12,0.97-12.37,5.44-16.69l56.25-54.94l-78.75-11.62c-5.86-1.18-10.8-5.08-13.31-10.5L225,98.44l-35.44,70.31
			c-2.75,5.47-8,9.25-14.06,10.12L96.75,190.5L153,245.44c4.46,4.32,6.5,10.57,5.44,16.69l-13.5,78l70.69-37.5
			C218.62,301.51,221.87,301.25,225,301.88L225,301.88z"/>
	</g>
</g>
</svg>
